<svg preserveAspectRatio="none" width="100%" height="100%" overflow="visible" style="display: block;" viewBox="0 0 42 42" fill="none" xmlns="http://www.w3.org/2000/svg">
<g id="Ring">
<path id="Background" d="M21.45 3C23.8729 3 26.2721 3.47722 28.5105 4.40442C30.749 5.33162 32.7829 6.69064 34.4961 8.40388C36.2094 10.1171 37.5684 12.151 38.4956 14.3895C39.4228 16.6279 39.9 19.0271 39.9 21.45C39.9 23.8729 39.4228 26.2721 38.4956 28.5105C37.5684 30.749 36.2094 32.7829 34.4961 34.4961C32.7829 36.2094 30.749 37.5684 28.5105 38.4956C26.272 39.4228 23.8729 39.9 21.45 39.9C19.0271 39.9 16.6279 39.4228 14.3895 38.4956C12.151 37.5684 10.1171 36.2094 8.40387 34.4961C6.69063 32.7829 5.33162 30.749 4.40442 28.5105C3.47722 26.272 3 23.8729 3 21.45C3 19.0271 3.47723 16.6279 4.40443 14.3895C5.33163 12.151 6.69065 10.1171 8.40389 8.40387C10.1171 6.69063 12.151 5.33162 14.3895 4.40442C16.628 3.47722 19.0271 3 21.45 3L21.45 3Z" stroke="var(--stroke-0, white)" stroke-width="4.1" stroke-linecap="round" stroke-linejoin="round"/>
<path id="Line" d="M21.45 3C25.3463 3 29.1425 4.23347 32.2946 6.52364C35.4468 8.8138 37.793 12.0431 38.997 15.7486C40.201 19.4542 40.201 23.4458 38.997 27.1514C37.793 30.8569 35.4468 34.0862 32.2946 36.3764" stroke="var(--stroke-0, #198754)" stroke-width="4.1" stroke-linecap="round" stroke-linejoin="round"/>
</g>
</svg>
