<svg preserveAspectRatio="none" width="100%" height="100%" overflow="visible" style="display: block;" viewBox="0 0 24 24" fill="none" xmlns="http://www.w3.org/2000/svg">
<g id="clock_loader_40">
<mask id="mask0_1664_13857" style="mask-type:alpha" maskUnits="userSpaceOnUse" x="0" y="0" width="24" height="24">
<rect id="Bounding box" width="24" height="24" fill="var(--fill-0, #D9D9D9)"/>
</mask>
<g mask="url(#mask0_1664_13857)">
<path id="clock_loader_40_2" d="M12.0089 21.0997C10.7571 21.0997 9.57806 20.8628 8.47189 20.3892C7.36572 19.9155 6.39756 19.2637 5.56739 18.4339C4.73722 17.6041 4.08514 16.6367 3.61114 15.5317C3.13731 14.4268 2.90039 13.2462 2.90039 11.9899C2.90039 10.7336 3.13722 9.55649 3.61089 8.45866C4.08456 7.36082 4.73631 6.39682 5.56614 5.56666C6.39597 4.73649 7.36339 4.08441 8.46839 3.61041C9.57322 3.13657 10.7538 2.89966 12.0101 2.89966C13.2665 2.89966 14.4436 3.13649 15.5414 3.61016C16.6392 4.08382 17.6032 4.73557 18.4334 5.56541C19.2636 6.39524 19.9156 7.36066 20.3896 8.46166C20.8635 9.56282 21.1004 10.7393 21.1004 11.9912C21.1004 13.243 20.8636 14.422 20.3899 15.5282C19.9162 16.6343 19.2645 17.6025 18.4346 18.4327C17.6048 19.2628 16.6394 19.9149 15.5384 20.3889C14.4372 20.8627 13.2607 21.0997 12.0089 21.0997ZM12.0129 19.7997C13.0522 19.7997 14.0459 19.5981 14.9939 19.1949C15.9419 18.7917 16.7826 18.224 17.5159 17.4917L12.0004 11.9997V4.19966C9.83372 4.19966 7.99206 4.95799 6.47539 6.47466C4.95872 7.99133 4.20039 9.83299 4.20039 11.9997C4.20039 14.1663 4.95722 16.008 6.47089 17.5247C7.98456 19.0413 9.83189 19.7997 12.0129 19.7997Z" fill="var(--fill-0, #198754)"/>
</g>
</g>
</svg>
