<svg preserveAspectRatio="none" width="100%" height="100%" overflow="visible" style="display: block;" viewBox="0 0 59 17" fill="none" xmlns="http://www.w3.org/2000/svg">
<g id="LOGO">
<path d="M0 15.8146V0.213299H3.29852V13.095H9.98696V15.8146H0Z" fill="var(--fill-0, #272635)" fill-opacity="0.25"/>
<path d="M25.9006 8.01394C25.9006 9.71526 25.5781 11.1626 24.9331 12.3561C24.2932 13.5496 23.4197 14.4612 22.3126 15.0909C21.2105 15.7156 19.9714 16.0279 18.5951 16.0279C17.2087 16.0279 15.9644 15.713 14.8624 15.0833C13.7603 14.4535 12.8893 13.5419 12.2495 12.3485C11.6096 11.155 11.2896 9.71018 11.2896 8.01394C11.2896 6.31263 11.6096 4.86525 12.2495 3.67179C12.8893 2.47833 13.7603 1.56927 14.8624 0.94461C15.9644 0.31487 17.2087 0 18.5951 0C19.9714 0 21.2105 0.31487 22.3126 0.94461C23.4197 1.56927 24.2932 2.47833 24.9331 3.67179C25.5781 4.86525 25.9006 6.31263 25.9006 8.01394ZM22.5564 8.01394C22.5564 6.9119 22.3913 5.98253 22.0612 5.22582C21.7362 4.46912 21.2766 3.89525 20.6824 3.5042C20.0882 3.11315 19.3924 2.91763 18.5951 2.91763C17.7978 2.91763 17.102 3.11315 16.5078 3.5042C15.9136 3.89525 15.4515 4.46912 15.1214 5.22582C14.7963 5.98253 14.6338 6.9119 14.6338 8.01394C14.6338 9.11599 14.7963 10.0454 15.1214 10.8021C15.4515 11.5588 15.9136 12.1326 16.5078 12.5237C17.102 12.9147 17.7978 13.1103 18.5951 13.1103C19.3924 13.1103 20.0882 12.9147 20.6824 12.5237C21.2766 12.1326 21.7362 11.5588 22.0612 10.8021C22.3913 10.0454 22.5564 9.11599 22.5564 8.01394Z" fill="var(--fill-0, #272635)" fill-opacity="0.25"/>
<path d="M38.689 5.2563C38.5823 4.88556 38.4325 4.55799 38.2395 4.2736C38.0466 3.98412 37.8104 3.74035 37.5311 3.54229C37.2568 3.33914 36.942 3.18425 36.5865 3.0776C36.2361 2.97095 35.8475 2.91763 35.4209 2.91763C34.6236 2.91763 33.9228 3.11569 33.3184 3.51181C32.7192 3.90794 32.2519 4.48436 31.9168 5.24106C31.5816 5.99268 31.414 6.9119 31.414 7.99871C31.414 9.08552 31.579 10.0098 31.9091 10.7716C32.2392 11.5334 32.7065 12.1149 33.3108 12.5161C33.9152 12.9122 34.6287 13.1103 35.4514 13.1103C36.198 13.1103 36.8353 12.9782 37.3635 12.7141C37.8967 12.445 38.303 12.0666 38.5823 11.5791C38.8667 11.0915 39.0089 10.5151 39.0089 9.84984L39.6793 9.94887H35.6571V7.46546H42.1856V9.43086C42.1856 10.8021 41.8961 11.9803 41.3171 12.9655C40.7382 13.9457 39.9409 14.7024 38.9251 15.2356C37.9094 15.7638 36.7465 16.0279 35.4362 16.0279C33.9736 16.0279 32.6887 15.7054 31.5816 15.0604C30.4744 14.4104 29.6111 13.4886 28.9915 12.2952C28.377 11.0966 28.0698 9.67463 28.0698 8.02918C28.0698 6.76462 28.2526 5.63719 28.6182 4.64687C28.989 3.65147 29.507 2.80844 30.1723 2.11775C30.8376 1.42707 31.612 0.901442 32.4957 0.540865C33.3794 0.180288 34.3367 0 35.3676 0C36.2513 0 37.074 0.129503 37.8358 0.388509C38.5976 0.642436 39.273 1.00301 39.8621 1.47024C40.4563 1.93746 40.9413 2.49357 41.3171 3.13854C41.693 3.77844 41.9342 4.48436 42.0408 5.2563H38.689Z" fill="var(--fill-0, #272635)" fill-opacity="0.25"/>
<path d="M59 8.01394C59 9.71526 58.6775 11.1626 58.0325 12.3561C57.3926 13.5496 56.5191 14.4612 55.412 15.0909C54.31 15.7156 53.0708 16.0279 51.6945 16.0279C50.3081 16.0279 49.0638 15.713 47.9618 15.0833C46.8597 14.4535 45.9888 13.5419 45.3489 12.3485C44.709 11.155 44.389 9.71018 44.389 8.01394C44.389 6.31263 44.709 4.86525 45.3489 3.67179C45.9888 2.47833 46.8597 1.56927 47.9618 0.94461C49.0638 0.31487 50.3081 0 51.6945 0C53.0708 0 54.31 0.31487 55.412 0.94461C56.5191 1.56927 57.3926 2.47833 58.0325 3.67179C58.6775 4.86525 59 6.31263 59 8.01394ZM55.6558 8.01394C55.6558 6.9119 55.4907 5.98253 55.1606 5.22582C54.8356 4.46912 54.376 3.89525 53.7818 3.5042C53.1876 3.11315 52.4918 2.91763 51.6945 2.91763C50.8972 2.91763 50.2014 3.11315 49.6072 3.5042C49.013 3.89525 48.5509 4.46912 48.2208 5.22582C47.8958 5.98253 47.7332 6.9119 47.7332 8.01394C47.7332 9.11599 47.8958 10.0454 48.2208 10.8021C48.5509 11.5588 49.013 12.1326 49.6072 12.5237C50.2014 12.9147 50.8972 13.1103 51.6945 13.1103C52.4918 13.1103 53.1876 12.9147 53.7818 12.5237C54.376 12.1326 54.8356 11.5588 55.1606 10.8021C55.4907 10.0454 55.6558 9.11599 55.6558 8.01394Z" fill="var(--fill-0, #272635)" fill-opacity="0.25"/>
</g>
</svg>
