<svg preserveAspectRatio="none" width="100%" height="100%" overflow="visible" style="display: block;" viewBox="0 0 28 28" fill="none" xmlns="http://www.w3.org/2000/svg">
<g id="image">
<path id="Vector" d="M22.75 1.75H5.25C3.325 1.75 1.75 3.325 1.75 5.25V22.75C1.75 24.675 3.325 26.25 5.25 26.25H22.75C24.675 26.25 26.25 24.675 26.25 22.75V5.25C26.25 3.325 24.675 1.75 22.75 1.75Z" fill="var(--fill-0, white)"/>
<path id="Vector_2" d="M7.875 10.5C9.32475 10.5 10.5 9.32475 10.5 7.875C10.5 6.42525 9.32475 5.25 7.875 5.25C6.42525 5.25 5.25 6.42525 5.25 7.875C5.25 9.32475 6.42525 10.5 7.875 10.5Z" fill="var(--fill-0, #ECEEE4)"/>
<path id="Vector_3" d="M5.25 26.25H22.75C24.675 26.25 26.25 24.675 26.25 22.75V18.9L20.2125 12.8625C19.1625 11.8125 17.5 11.8125 16.5375 12.8625L12.1625 17.2375L10.4125 15.925C9.45 15.225 8.05 15.225 7.0875 16.0125L1.75 20.5625V22.75C1.75 24.675 3.325 26.25 5.25 26.25Z" fill="var(--fill-0, #198754)"/>
</g>
</svg>
