<svg preserveAspectRatio="none" width="100%" height="100%" overflow="visible" style="display: block;" viewBox="0 0 16 9" fill="none" xmlns="http://www.w3.org/2000/svg">
<path id="Vector" d="M6 4.12501H8.5L13.7344 2.9211C13.9268 2.86836 14.1288 2.86071 14.3247 2.89875C14.5206 2.93679 14.7051 3.01949 14.8638 3.14041C15.0225 3.26134 15.1512 3.41725 15.2399 3.59601C15.3285 3.77476 15.3748 3.97156 15.375 4.1711C15.3751 4.41203 15.308 4.64821 15.1814 4.85315C15.0547 5.05808 14.8734 5.22364 14.6578 5.33126L11.625 6.62501L6.625 7.87501H1V3.50001L2.95312 1.54688C3.1277 1.37291 3.33485 1.23507 3.56275 1.14123C3.79064 1.04739 4.03479 0.999401 4.28125 1.00001H8.1875C8.6019 1.00001 8.99933 1.16463 9.29235 1.45765C9.58538 1.75068 9.75 2.14811 9.75 2.56251C9.75 2.97691 9.58538 3.37433 9.29235 3.66736C8.99933 3.96039 8.6019 4.12501 8.1875 4.12501H6Z" stroke="var(--stroke-0, #2F2B43)" stroke-opacity="0.5" stroke-linecap="round" stroke-linejoin="round"/>
</svg>
