<svg preserveAspectRatio="none" width="100%" height="100%" overflow="visible" style="display: block;" viewBox="0 0 16 14" fill="none" xmlns="http://www.w3.org/2000/svg">
<path id="Vector" d="M1 2.25V12.25C1 12.5815 1.1317 12.8995 1.36612 13.1339C1.60054 13.3683 1.91848 13.5 2.25 13.5H14.75C14.9158 13.5 15.0747 13.4342 15.1919 13.3169C15.3092 13.1997 15.375 13.0408 15.375 12.875V4.125C15.375 3.95924 15.3092 3.80027 15.1919 3.68306C15.0747 3.56585 14.9158 3.5 14.75 3.5H2.25C1.91848 3.5 1.60054 3.3683 1.36612 3.13388C1.1317 2.89946 1 2.58152 1 2.25ZM1 2.25C1 1.91848 1.1317 1.60054 1.36612 1.36612C1.60054 1.1317 1.91848 1 2.25 1H12.875" stroke="var(--stroke-0, #2F2B43)" stroke-opacity="0.5" stroke-linecap="round" stroke-linejoin="round"/>
</svg>
