<svg preserveAspectRatio="none" width="100%" height="100%" overflow="visible" style="display: block;" viewBox="0 0 11 9" fill="none" xmlns="http://www.w3.org/2000/svg">
<g id="icon">
<path d="M2.14645 3.35355C1.95118 3.15829 1.95118 2.8417 2.14645 2.64644C2.34171 2.45118 2.65829 2.45118 2.85355 2.64644L4.53388 4.32677L5.18373 3.79606C5.38793 3.6293 5.68653 3.64974 5.86609 3.84278L7.50142 5.60075L8.13523 4.92469C8.3241 4.72323 8.64051 4.71303 8.84197 4.90189C9.04343 5.09076 9.05363 5.40718 8.86477 5.60863L7.86477 6.6753C7.77001 6.77637 7.63757 6.8336 7.49903 6.83333C7.36049 6.83306 7.22827 6.77532 7.13391 6.67388L5.45319 4.86711L4.81627 5.38726C4.61744 5.54963 4.32796 5.53506 4.14645 5.35355L2.14645 3.35355Z" fill="var(--fill-0, #272635)"/>
<path fill-rule="evenodd" clip-rule="evenodd" d="M2 0C0.89543 0 0 0.895432 0 2V7C0 8.10457 0.89543 9 2 9H9C10.1046 9 11 8.10457 11 7V2C11 0.895431 10.1046 0 9 0H2ZM1 2C1 1.44772 1.44772 1 2 1H9C9.55228 1 10 1.44772 10 2V7C10 7.55228 9.55229 8 9 8H2C1.44772 8 1 7.55228 1 7V2Z" fill="var(--fill-0, #272635)"/>
</g>
</svg>
