<svg preserveAspectRatio="none" width="100%" height="100%" overflow="visible" style="display: block;" viewBox="0 0 24 24" fill="none" xmlns="http://www.w3.org/2000/svg">
<g id="donut_large">
<mask id="mask0_1664_13831" style="mask-type:alpha" maskUnits="userSpaceOnUse" x="0" y="0" width="24" height="24">
<rect id="Bounding box" width="24" height="24" fill="var(--fill-0, #D9D9D9)"/>
</mask>
<g mask="url(#mask0_1664_13831)">
<path id="donut_large_2" d="M11.0901 21.0502C8.7413 20.8232 6.78739 19.8453 5.22839 18.1164C3.66955 16.3876 2.89014 14.3489 2.89014 12.0002C2.89014 9.65153 3.66955 7.61595 5.22839 5.89345C6.78739 4.17111 8.7413 3.19003 11.0901 2.9502V4.46545C9.16447 4.71811 7.56889 5.55886 6.30339 6.9877C5.03805 8.41653 4.40539 10.0874 4.40539 12.0002C4.40539 13.913 5.03805 15.5839 6.30339 17.0127C7.56889 18.4415 9.16447 19.2823 11.0901 19.5349V21.0502ZM12.8901 21.0502V19.5349C14.6363 19.3349 16.1254 18.6157 17.3574 17.3772C18.5894 16.1387 19.3118 14.6464 19.5246 12.9002H21.0399C20.8232 15.0822 19.9546 16.9351 18.4341 18.4589C16.9136 19.9826 15.0656 20.8464 12.8901 21.0502ZM19.5246 11.1002C19.3055 9.35403 18.5815 7.86495 17.3526 6.63295C16.1238 5.40078 14.6363 4.67828 12.8901 4.46545V2.9502C15.0656 3.16686 16.9136 4.03544 18.4341 5.55595C19.9546 7.07645 20.8232 8.92453 21.0399 11.1002H19.5246Z" fill="var(--fill-0, #081F24)" fill-opacity="0.5"/>
</g>
</g>
</svg>
