<svg width="161" height="95" viewBox="0 0 161 95" fill="none" xmlns="http://www.w3.org/2000/svg">
<path d="M120.583 67.3026C118.371 67.4391 116.323 66.9536 114.828 65.3137C109.037 58.963 103.626 52.4035 102.607 43.2246C102.102 38.6785 102.039 38.5963 106.223 40.0629C117.779 44.0473 121.844 56.2043 122.144 65.579C122.185 66.8587 121.73 67.2319 120.583 67.3026ZM139.32 70.0787C137.95 54.1428 143.903 38.6608 140.115 22.7856C147.399 30.0006 146.892 65.0116 139.32 70.0787ZM150.769 32.2946C152.521 39.0685 153.132 45.9664 151.068 52.8431C150.68 54.1347 151.678 55.4134 150.709 56.5572C150.709 56.5575 150.709 56.5578 150.709 56.5581C150.489 59.6925 149.51 62.5828 147.903 65.271C147.755 65.8168 147.832 66.7196 146.859 65.9599C146.429 64.7143 146.981 63.6011 147.355 62.4638C148.671 54.7638 149.17 47.0477 148.437 39.2598C148.05 35.1351 147.253 31.1147 146.173 26.8542C149.076 27.7132 150.173 29.9888 150.769 32.2946ZM156.817 43.7779C157.389 46.6707 157.313 49.5463 156.49 52.4012C156.49 52.4019 156.49 52.4025 156.49 52.4032C156.691 53.7403 156.338 54.9782 155.795 56.1828C155.027 59.4157 154.182 62.6238 152.758 65.6459C152.651 66.4491 152.102 66.8398 150.89 67.3418C151.992 63.9327 152.982 60.872 153.971 57.8114C155.288 53.6597 155.248 49.3275 155.755 45.0683C155.755 45.0681 155.755 45.068 155.755 45.068C155.669 43.8663 155.582 42.6643 155.472 41.1244C156.779 41.8688 156.733 42.8564 156.817 43.7779ZM124.549 91.8416C125.544 92.3526 126.537 92.8636 127.532 93.3742C128.069 93.3408 128.62 93.3538 129.124 93.2066C133.396 92.84 135.827 90.3722 137.034 86.2951C137.884 83.4245 138.331 80.5116 138.394 77.5552C138.455 74.6399 139.506 72.8626 142.596 72.5466C145.993 72.1997 148.826 70.021 152.127 69.1899C154.12 68.6882 155.037 66.5201 155.72 64.6038C156.992 61.0388 158.264 57.476 158.765 53.6791C159.025 51.7019 159.087 49.6561 159.957 47.7867C160.146 47.4791 160.346 47.1917 160.579 46.9708C160.505 45.8852 160.431 44.7995 160.356 43.7135C160.135 43.4933 159.908 43.2775 159.679 43.0622C158.76 41.4165 158.059 39.7253 158.621 37.7702C158.536 37.6973 158.451 37.6245 158.364 37.5534C157.596 36.3995 156.956 35.1508 155.93 34.1857C155.649 33.7861 155.495 33.3415 155.452 32.8532C152.96 31.1188 153.174 27.5352 150.979 25.598C149.15 23.6034 146.193 23.5662 144.303 21.6779C142.992 19.6318 141.518 17.8447 138.946 17.3416C138.218 17.199 137.777 16.7316 137.459 16.151C137.077 15.981 136.702 15.7268 136.331 15.3681C134.003 13.4545 132.165 10.9093 129.299 9.6976C128.074 9.1788 126.84 8.53071 124.571 8.88871C133.663 13.109 138.683 19.3764 138.248 29.2549C138.098 29.7653 137.951 30.2756 137.838 30.7868C137.954 31.787 137.938 32.7963 137.859 33.8095C137.926 34.0205 138.011 34.232 138.116 34.4432C138.109 34.7755 138.005 35.0781 137.813 35.3483C137.796 35.3659 137.778 35.3817 137.757 35.3959C138.13 36.1279 138.001 36.8397 137.599 37.5404C137.438 38.221 137.278 38.9013 137.117 39.5817C138.392 41.5782 137.454 43.6287 137.189 45.6628C137.358 46.6522 137.419 47.6338 136.941 48.5741C135.486 55.3494 135.735 62.2198 135.597 69.0682C136.23 70.0975 135.433 71.0492 135.406 72.0423C136.011 72.7696 136.18 73.5916 135.885 74.515C135.866 74.7523 135.846 74.9894 135.826 75.2266C136.235 79.5302 135.634 83.7055 134.014 87.7171C133.251 89.605 131.998 90.8348 129.739 90.693C127.461 90.5494 126.772 88.8379 126.47 87.1409C125.497 81.6624 125.47 76.0911 125.563 70.5257C125.577 69.6444 125.976 68.922 126.865 68.5893C126.995 68.1614 127.127 67.7334 127.257 67.3055C124.355 64.0038 125.514 59.5609 124.254 55.7979C123.762 54.4021 123.27 53.0066 122.778 51.6107C119.321 43.9159 113.734 38.619 105.688 36.2132C99.6318 34.4024 93.6456 36.8362 90.4691 42.3916C84.6036 52.6501 86.0946 62.7595 91.3417 72.4685C94.1369 77.6413 97.7686 82.2648 103.304 84.9155C104.949 85.7031 106.861 87.0534 105.82 89.2291C104.853 91.2493 102.778 91.6357 100.64 90.7731C96.7538 89.2055 92.8129 87.7691 88.9661 86.112C83.0265 83.5534 78.637 79.2333 74.919 73.8826C69.1093 65.5207 65.7144 55.9769 61.5227 46.8157C61.0208 45.6489 60.5185 44.4822 60.0162 43.3156C55.7869 38.2285 49.9884 36.0456 43.9191 34.2017C36.1149 31.8308 28.7653 28.2822 21.4351 24.7531C9.22337 18.8737 -3.74943 15.1684 -16.5731 11.0091C-23.8692 8.6425 -31.0799 6.0093 -38.2984 3.4117C-39.4332 3.00334 -40.8604 2.90949 -41.4745 1.52822C-41.5485 1.25845 -41.6224 0.988387 -41.6964 0.718322C-43.1937 -0.566316 -44.6036 0.0955373 -46.004 0.971145L-46.0028 1.01663C-45.9193 1.15609 -45.8374 1.29637 -45.7516 1.43459C-45.4795 2.17944 -45.4152 2.88831 -45.9326 3.49237C-45.928 3.52435 -45.9239 3.55654 -45.9192 3.58856L-45.6751 3.62669L-45.6364 3.76426C-45.3685 3.70921 -45.0944 3.63395 -44.8117 3.52897C-41.4135 5.05958 -37.5284 5.43091 -34.5345 7.91004C-34.2535 8.27923 -33.9355 8.61761 -33.6128 8.95284C-32.6095 9.19528 -31.6559 9.58086 -30.7265 10.035C-30.2261 9.84209 -29.6789 9.78713 -29.1095 9.79108C-20.2445 12.0465 -11.5769 14.9132 -3.04125 18.1622C-2.42655 18.5922 -2.06478 19.0214 -2.09293 19.4442C-1.78201 19.5441 -1.47068 19.6437 -1.15916 19.7438C-0.839526 19.5363 -0.513572 19.3806 -0.116684 19.3865C6.12155 20.157 11.6098 23.0832 17.2267 25.5555C27.6489 30.143 37.8314 35.2927 48.8067 38.5326C53.7883 40.0029 57.0056 43.4171 59.2971 48.1384C63.6474 57.1014 67.0124 66.5377 72.6479 74.8954C77.6733 82.3475 84.1852 87.29 92.466 90.163C94.8509 90.9905 97.511 91.2906 99.2748 93.437C99.4113 93.7316 99.4879 93.9873 99.5197 94.2129C100.201 94.3185 100.881 94.4244 101.562 94.53C101.995 94.307 102.44 94.1075 102.907 93.9589C109.204 91.5201 109.89 88.4789 105.434 82.6914C105.092 82.2756 104.749 81.86 104.399 81.4549C102.582 80.5508 100.793 79.608 99.5695 77.8969C99.3642 77.8342 99.1552 77.7769 98.9376 77.7304C95.9343 75.2386 93.1778 72.5748 92.7416 68.3197C92.7872 68.1765 92.8511 68.0591 92.9232 67.9537C91.8293 66.2807 91.3491 64.3983 91.2432 62.3875C88.4945 52.4647 91.6466 42.6359 98.7652 39.857C99.3116 47.8117 101.858 54.9712 106.444 61.3171C107.506 61.7998 108.123 62.6877 108.683 63.6274C108.838 63.6157 108.994 63.6065 109.15 63.5913C110.239 64.0615 111.063 64.8904 111.874 65.7199C114.052 67.9477 116.499 69.565 119.749 69.6222C122.001 69.6619 123.056 70.8929 123.09 73.1988C123.163 78.1474 123.267 83.0969 124.121 87.9838C124.243 88.6805 124.252 89.3982 123.801 89.9871C123.814 90.0281 123.824 90.0693 123.837 90.1103C124.378 90.5628 124.937 91.0081 124.549 91.8416Z" fill="#9D9C9A"/>
</svg>
