<svg width="162" height="126" viewBox="0 0 162 126" fill="none" xmlns="http://www.w3.org/2000/svg">
<path d="M28.9787 55.2494C30.7671 56.961 32.8623 58.0577 35.3166 57.8352C44.8211 56.9735 54.1519 55.6702 61.6218 49.1C65.3216 45.846 65.434 45.8258 60.8123 43.9631C48.0933 38.7641 35.8852 45.4995 28.8877 52.7466C27.932 53.7355 28.0522 54.3628 28.9787 55.2494ZM11.0059 43.8865C23.6343 32.1904 29.6913 15.5499 44.3375 5.65361C32.9388 6.12238 8.19324 34.3664 11.0059 43.8865ZM28.4152 5.50732C22.0503 9.63199 16.5682 14.6813 13.3833 21.6523C12.7851 22.9616 11.015 23.2571 11.0185 24.8697C11.0184 24.87 11.0183 24.8704 11.0181 24.8707C8.95145 27.5256 7.70778 30.5361 7.14481 33.8407C6.87894 34.3829 6.16406 35.0459 7.53962 35.1456C8.80174 34.465 9.13186 33.179 9.63118 32.0028C14.0456 24.9178 19.1693 18.4128 25.3945 12.7423C28.6912 9.73896 32.2615 7.11482 36.2463 4.5047C33.153 3.08554 30.5812 4.10272 28.4152 5.50732ZM14.9998 10.2692C12.4325 12.1588 10.4288 14.5029 9.07805 17.3728C9.07746 17.3732 9.07719 17.3738 9.0766 17.3743C7.94326 18.293 7.35471 19.5349 6.95136 20.8874C5.28108 24.0177 3.69497 27.1846 2.73592 30.6225C2.24921 31.3393 2.43648 32.0482 3.10876 33.3258C4.62049 29.8128 5.97771 26.6589 7.33493 23.505C9.19813 19.2457 12.3469 15.8247 14.9777 12.0663C14.9779 12.066 14.9782 12.0661 14.9782 12.0661C15.916 11.1718 16.8539 10.2772 18.0555 9.13115C16.4057 8.777 15.735 9.5969 14.9998 10.2692ZM7.95059 71.9156C6.73519 71.602 5.52031 71.289 4.30536 70.9753C3.87149 70.5597 3.39211 70.1707 3.06799 69.6882C-0.310664 66.3018 -0.608915 62.5757 1.29354 58.4547C2.63296 55.5532 4.34648 52.9099 6.41931 50.5107C8.46366 48.1452 8.84522 45.9683 6.43767 43.4781C3.79077 40.7412 2.94164 36.954 0.7248 33.9011C-0.613265 32.0582 0.163874 29.6675 0.959315 27.6467C2.43874 23.8869 3.9161 20.1285 6.21949 16.7424C7.41884 14.979 8.83785 13.3058 9.44013 11.1869C9.49978 10.8046 9.53604 10.431 9.49627 10.0863C10.3402 9.27566 11.1844 8.46509 12.0287 7.65423C12.3758 7.63924 12.7248 7.63207 13.0747 7.62637C15.0419 6.98177 16.8551 6.14254 17.7825 4.17926C17.9074 4.18274 18.032 4.1861 18.1578 4.19289C19.6422 3.83026 21.0861 3.29977 22.6542 3.27393C23.1817 3.15979 23.6327 2.91734 24.0205 2.55967C27.3922 2.9835 29.7869 -0.0247225 33.0517 0.0229935C36.0455 -0.240373 38.5939 1.87239 41.5632 1.7379C44.1525 1.05837 46.6945 0.703307 49.2494 2.16593C49.9731 2.58005 50.6845 2.52671 51.3731 2.29483C51.8212 2.43632 52.3245 2.50612 52.8984 2.48898C56.2592 2.65136 59.6573 1.95675 62.9718 3.06761C64.3894 3.54191 65.9083 3.92041 67.5853 5.84894C56.7976 2.6226 48.0107 3.97689 41.2775 12.1576C41.0379 12.6722 40.7966 13.1853 40.5253 13.6742C39.7074 14.3868 38.9955 15.2022 38.3342 16.0661C38.1248 16.1851 37.9004 16.2921 37.6588 16.384C37.426 16.654 37.2969 16.97 37.2665 17.3245C37.2679 17.3504 37.2725 17.3766 37.2801 17.403C36.4356 17.7156 36.0335 18.3756 35.8727 19.225C35.5202 19.8832 35.1678 20.5412 34.8159 21.1997C32.2927 21.8655 31.6182 24.1779 30.3808 25.989C29.5256 26.6547 28.7674 27.3919 28.4987 28.4868C24.8674 34.936 19.714 40.2258 14.9077 45.7794C13.627 46.1398 13.6229 47.4755 12.9317 48.2859C11.8926 48.4264 11.1572 48.9584 10.7447 49.9074C10.5907 50.1104 10.4368 50.3134 10.2831 50.5165C6.83997 53.6473 4.34964 57.4071 2.84651 61.7751C2.13931 63.831 2.32307 65.7177 4.35144 67.2414C6.3969 68.7771 8.2153 67.9137 9.69309 66.7811C14.4629 63.1241 18.4923 58.7075 22.4152 54.2088C23.0363 53.4962 23.2159 52.6322 22.6975 51.7235C22.8939 51.2883 23.0897 50.8524 23.2861 50.4171C28.1349 49.8904 30.342 45.5135 34.1221 43.4298C35.5453 42.6747 36.9684 41.92 38.3916 41.1649C46.8729 37.5423 55.4462 37.3723 64.0364 41.285C70.5029 44.2306 73.857 50.5051 72.5705 57.2297C70.1948 69.6471 61.6535 76.6165 50.1975 80.5462C44.0942 82.64 37.6727 83.6906 31.0463 81.7909C29.0772 81.2264 26.4761 80.9166 25.7995 83.4035C25.1714 85.7127 26.662 87.5228 29.1059 88.3852C33.5468 89.9522 37.94 91.6634 42.4117 93.1306C49.3163 95.3961 56.1658 95.1362 63.1839 93.5691C74.1508 91.1196 83.9088 85.9798 94.0709 81.7218C95.338 81.1563 96.6053 80.5913 97.8725 80.0262C105.137 79.0395 111.651 81.5019 118.152 84.4305C126.512 88.1962 135.33 90.6949 144.118 93.195C158.759 97.36 172.485 103.808 186.411 109.785C194.334 113.187 202.376 116.313 210.399 119.474C211.66 119.971 212.945 120.93 214.461 120.276C214.719 120.114 214.976 119.953 215.233 119.791C217.434 119.853 218.16 121.402 218.724 123.113L218.691 123.149C218.519 123.199 218.348 123.252 218.176 123.299C217.408 123.695 216.844 124.213 216.85 125.069C216.823 125.091 216.797 125.114 216.77 125.136L216.534 124.989L216.402 125.071C216.213 124.833 216.034 124.575 215.868 124.286C211.87 123.043 208.29 120.524 203.955 120.33C203.45 120.42 202.935 120.459 202.419 120.492C201.389 119.958 200.299 119.575 199.18 119.263C198.892 118.747 198.464 118.307 197.976 117.897C188.795 113.271 179.343 109.275 169.728 105.678C168.895 105.575 168.278 105.655 167.998 106.012C167.661 105.866 167.324 105.72 166.986 105.574C166.863 105.177 166.697 104.817 166.354 104.534C160.481 100.629 153.697 98.9831 147.13 96.8826C134.944 92.9853 122.558 89.7092 110.87 84.3382C105.565 81.9001 100.367 82.288 95.0175 84.3873C84.8626 88.3725 75.2075 93.4485 64.392 96.0207C54.748 98.3139 45.6412 97.532 36.5143 93.8209C33.8857 92.752 31.4016 91.0639 28.3541 91.4952C28.0259 91.6309 27.7767 91.779 27.5875 91.9356C26.9309 91.5265 26.2746 91.1179 25.6183 90.7089C25.4088 90.2171 25.1735 89.7366 24.8822 89.2799C21.266 82.7756 22.8684 79.8575 30.83 78.4775C31.4207 78.3942 32.0116 78.3113 32.6014 78.2423C34.8012 78.839 37.004 79.3838 39.2781 78.908C39.4983 79.0068 39.7177 79.1126 39.9367 79.2332C44.2894 79.4248 48.5554 79.3007 51.9874 76.2285C52.0514 76.0815 52.0813 75.9417 52.0956 75.8056C54.2315 75.2658 55.9946 74.1149 57.5309 72.5905C67.0104 66.6807 71.3908 56.5712 67.3193 49.2016C61.133 55.1397 53.8131 58.9957 45.3394 60.7265C44.0866 60.3414 42.9222 60.6015 41.7692 60.9443C41.6446 60.8221 41.519 60.7024 41.3969 60.5772C40.13 60.1626 38.831 60.2253 37.5431 60.2984C34.0842 60.4948 30.8343 60.0096 28.0218 57.7007C26.0731 56.1009 24.2887 56.3172 22.6014 58.1285C18.9803 62.0157 15.3327 65.8817 11.0899 69.154C10.485 69.6204 9.96139 70.1856 9.92196 70.9807C9.88162 71.0041 9.84312 71.0294 9.80248 71.0526C9.01595 71.0212 8.2196 70.9712 7.95059 71.9156Z" fill="#9D9C9A"/>
</svg>
