<svg preserveAspectRatio="none" width="100%" height="100%" overflow="visible" style="display: block;" viewBox="0 0 11 6" fill="none" xmlns="http://www.w3.org/2000/svg">
<path id="Vector" d="M10.9623 0.30875C10.9244 0.21738 10.8604 0.139279 10.7782 0.0843217C10.6959 0.0293647 10.5993 2.04768e-05 10.5004 1.549e-07H0.500394C0.401446 -7.77138e-05 0.3047 0.0292046 0.222403 0.08414C0.140106 0.139075 0.0759587 0.217193 0.0380825 0.308605C0.000206247 0.400016 -0.00969606 0.500611 0.00962914 0.597654C0.0289543 0.694696 0.0766381 0.783823 0.146644 0.85375L5.14664 5.85375C5.19308 5.90024 5.24823 5.93712 5.30892 5.96228C5.36962 5.98744 5.43469 6.00039 5.50039 6.00039C5.5661 6.00039 5.63117 5.98744 5.69186 5.96228C5.75256 5.93712 5.80771 5.90024 5.85414 5.85375L10.8541 0.85375C10.924 0.783786 10.9716 0.694662 10.9909 0.597652C11.0101 0.500641 11.0002 0.400102 10.9623 0.30875Z" fill="var(--fill-0, #93939A)"/>
</svg>
